<?xml version="1.0" encoding="UTF-8"?>
<svg version="1.1" xmlns="http://www.w3.org/2000/svg" width="160" height="160">
<path d="M0 0 C11.95777558 9.6427794 18.93632105 21.80021083 21 37 C22.08200544 55.19278909 17.059388 73.14453294 5 87 C-3.8209274 96.77605966 -13.96576516 105.31971289 -27.6875 106.25 C-28.450625 106.1675 -29.21375 106.085 -30 106 C-30.04898438 106.56847656 -30.09796875 107.13695312 -30.1484375 107.72265625 C-31.37338262 120.37338262 -31.37338262 120.37338262 -35.375 124.375 C-39.49643705 126.9263658 -39.49643705 126.9263658 -42 127 C-47.62530979 124.86650703 -52.589398 121.9837302 -57.6875 118.8125 C-58.47261963 118.3278125 -59.25773926 117.843125 -60.06665039 117.34375 C-81.31154348 104.16430942 -81.31154348 104.16430942 -82.65234375 99.94921875 C-82.74644531 99.20285156 -82.84054688 98.45648438 -82.9375 97.6875 C-83.04964844 96.94886719 -83.16179687 96.21023437 -83.27734375 95.44921875 C-82.86423457 91.80105741 -81.28065806 89.83377446 -79 87 C-76.49609375 85.19140625 -76.49609375 85.19140625 -73.4375 83.5625 C-72.20803291 82.89638754 -70.97889874 82.22966043 -69.75 81.5625 C-69.02941406 81.17707031 -68.30882812 80.79164062 -67.56640625 80.39453125 C-64.43990054 78.69565372 -61.34519041 76.9424723 -58.25 75.1875 C-56.42462377 74.15688663 -54.59869333 73.12726361 -52.77249146 72.09811401 C-51.55380453 71.41032375 -50.33608221 70.72082137 -49.11935425 70.02957153 C-47.38413855 69.04555685 -45.64331783 68.07144662 -43.90234375 67.09765625 C-42.37855103 66.23926147 -42.37855103 66.23926147 -40.82397461 65.36352539 C-38.12304174 64.05940937 -35.97593831 63.30104429 -33 63 C-29.31210638 64.66833283 -27.08928516 66.55357234 -25 70 C-24.63671875 72.875 -24.63671875 72.875 -24.6875 76 C-24.69136719 77.03125 -24.69523437 78.0625 -24.69921875 79.125 C-24.99229287 81.92633186 -25.55898368 83.61170203 -27 86 C-14.42412183 79.6080499 -5.99760892 74.31252211 0 61 C3.44730836 49.85410902 4.85895561 38.88543412 0 28 C-2.61112881 23.93824407 -5.70037799 20.37532815 -9.01171875 16.87109375 C-13.82606679 11.72472171 -13.82606679 11.72472171 -14.75 7.875 C-13.68962539 3.81023068 -11.97531649 1.97531649 -9 -1 C-5.12445317 -2.29184894 -3.71336854 -1.60139018 0 0 Z " fill="#1E1D1C" transform="translate(130,29)"/>
<path d="M0 0 C3.7579345 1.68523989 7.19756336 3.82169738 10.6875 6 C11.66122559 6.59361328 12.63495117 7.18722656 13.63818359 7.79882812 C16.43716006 9.51452556 19.22068801 11.25267545 22 13 C22.70108887 13.43570312 23.40217773 13.87140625 24.12451172 14.3203125 C37.14506801 22.4456371 37.14506801 22.4456371 38.49609375 28.0625 C38.46708984 29.0215625 38.46708984 29.0215625 38.4375 30 C38.43621094 30.639375 38.43492188 31.27875 38.43359375 31.9375 C37.53627182 36.20584216 35.74633862 38.49355593 32.15625 40.9296875 C30.94460735 41.59131039 29.72514065 42.23871929 28.5 42.875 C27.07491101 43.64079333 25.65048508 44.40782126 24.2265625 45.17578125 C23.41735352 45.60842285 22.60814453 46.04106445 21.77441406 46.48681641 C18.53904396 48.25140844 15.34369925 50.08226359 12.1484375 51.91796875 C10.33023869 52.95500367 8.51115658 53.99046829 6.69165039 55.02520752 C5.48576927 55.71375575 4.28212315 56.40623385 3.08081055 57.10272217 C1.37069859 58.09227269 -0.34967947 59.0640151 -2.0703125 60.03515625 C-3.56715576 60.89185913 -3.56715576 60.89185913 -5.09423828 61.76586914 C-8.3574813 63.15182893 -10.49045192 63.41754153 -14 63 C-16.57285724 60.827365 -18.48996919 59.02006162 -20 56 C-20.07181821 53.28239892 -20.09299506 50.59140612 -20.0625 47.875 C-20.05798828 47.12089844 -20.05347656 46.36679687 -20.04882812 45.58984375 C-20.03703499 43.72652873 -20.01909942 41.86325445 -20 40 C-34.8777791 48.32301987 -43.13338185 57.41744927 -48 74 C-49.21418835 84.29725122 -48.02344692 92.4596564 -42 101 C-39.7560862 103.53708847 -37.45342177 105.87672196 -34.953125 108.16015625 C-32.15797117 110.79319116 -31.06927861 112.47546193 -30.5625 116.3125 C-31.1548895 121.30549722 -32.21787715 122.70070134 -36 126 C-39.3125 126.8125 -39.3125 126.8125 -43 126 C-52.32226916 120.04257355 -58.75744773 109.99462687 -63 100 C-63.54914062 98.71802734 -63.54914062 98.71802734 -64.109375 97.41015625 C-68.33540489 81.22891021 -65.2370496 63.08200598 -57.25 48.625 C-53.72919459 43.25351482 -49.48951091 38.57436421 -45 34 C-44.06027344 33.02353516 -44.06027344 33.02353516 -43.1015625 32.02734375 C-35.4132493 24.64721188 -25.38567385 20.7602837 -15 19 C-14.90203125 18.11957031 -14.8040625 17.23914063 -14.703125 16.33203125 C-14.55359375 15.17058594 -14.4040625 14.00914063 -14.25 12.8125 C-14.11078125 11.66394531 -13.9715625 10.51539063 -13.828125 9.33203125 C-12.90361129 5.61217183 -11.63136931 3.74686834 -9 1 C-5.93608179 -0.53195911 -3.30201445 -0.62282385 0 0 Z " fill="#1E1D1C" transform="translate(72,3)"/>
<path d="M0 0 C2.0625 0.4375 2.0625 0.4375 4 1 C4.495 3.475 4.495 3.475 5 6 C5.495 5.835 5.99 5.67 6.5 5.5 C10.0629869 4.78740262 13.36534196 4.88083088 17 5 C18.73962949 6.73962949 18.17243833 9.07281723 18.1875 11.4375 C18.00859403 25.09941054 18.00859403 25.09941054 14.77734375 29.765625 C13.3125 31.1875 13.3125 31.1875 10 33 C6.125 32.8125 6.125 32.8125 3 32 C2.67 30.35 2.34 28.7 2 27 C1.38125 27.165 0.7625 27.33 0.125 27.5 C-3.49473162 28.35170156 -7.28983752 28 -11 28 C-12.34882408 28.63474075 -13.6846659 29.29848848 -15 30 C-15.99 29.34 -16.98 28.68 -18 28 C-18.66 28.66 -19.32 29.32 -20 30 C-22.828125 30.37890625 -22.828125 30.37890625 -26.25 30.5625 C-29.68414315 30.75636292 -32.96941838 30.99463044 -36.359375 31.58984375 C-37.23078125 31.72519531 -38.1021875 31.86054687 -39 32 C-40.58272601 30.41727399 -40.34735747 28.61965997 -40.5625 26.4375 C-40.64628906 25.61121094 -40.73007813 24.78492187 -40.81640625 23.93359375 C-40.87699219 23.29550781 -40.93757813 22.65742187 -41 22 C-41.03738281 22.61488281 -41.07476562 23.22976562 -41.11328125 23.86328125 C-41.17902344 24.67152344 -41.24476562 25.47976562 -41.3125 26.3125 C-41.39951172 27.51326172 -41.39951172 27.51326172 -41.48828125 28.73828125 C-42.1015151 31.44868124 -42.75722232 32.38134371 -45 34 C-47.05078125 34.4765625 -47.05078125 34.4765625 -49.3125 34.625 C-52.09773002 34.83785498 -54.6236801 35.12704595 -57.375 35.6875 C-60 36 -60 36 -63 34 C-63.6875 30.875 -63.6875 30.875 -64 28 C-65.98 28.33 -67.96 28.66 -70 29 C-70.33 31.31 -70.66 33.62 -71 36 C-72.65 36.66 -74.3 37.32 -76 38 C-78 36 -78 36 -78.18286133 33.90869141 C-78.07393685 31.14628215 -77.95790057 28.38577023 -77.8125 25.625 C-77.78091797 24.6659375 -77.74933594 23.706875 -77.71679688 22.71875 C-77.67232422 21.79320313 -77.62785156 20.86765625 -77.58203125 19.9140625 C-77.54311768 19.0679541 -77.5042041 18.2218457 -77.46411133 17.35009766 C-76.90670848 14.52760432 -75.9494786 13.09449327 -74 11 C-70.34687198 9.86334561 -66.80398882 9.64459083 -63 10 C-60.56275296 11.41349935 -59.66107528 12.65158323 -58 15 C-57.34 14.67 -56.68 14.34 -56 14 C-53.6670386 13.95833998 -51.3329614 13.95833998 -49 14 C-46.75186507 14.09802862 -46.75186507 14.09802862 -43.75 13 C-40.28085594 12.07489492 -37.55952465 11.82636465 -34 12 C-33.773125 11.195625 -33.54625 10.39125 -33.3125 9.5625 C-32.879375 8.716875 -32.44625 7.87125 -32 7 C-29.375 6.1875 -29.375 6.1875 -27 6 C-26.505 8.475 -26.505 8.475 -26 11 C-25.34 11 -24.68 11 -24 11 C-24 9.02 -24 7.04 -24 5 C-21.85477846 3.69754407 -20.47334158 2.98565632 -17.9375 3.0625 C-15.18478377 4.39445947 -14.36571121 6.33686315 -13 9 C-12.566875 8.05125 -12.13375 7.1025 -11.6875 6.125 C-10 3 -10 3 -7 1 C-5.00039988 0.960008 -2.99952758 0.95653201 -1 1 C-0.67 0.67 -0.34 0.34 0 0 Z M9 13 C8.67 14.32 8.34 15.64 8 17 C8.99 17 9.98 17 11 17 C11 15.68 11 14.36 11 13 C10.34 13 9.68 13 9 13 Z M-26 18 C-27.29633621 19.06645115 -27.29633621 19.06645115 -27.0625 21.5625 C-27.041875 22.366875 -27.02125 23.17125 -27 24 C-26.34 23.34 -25.68 22.68 -25 22 C-25.3185177 19.89179203 -25.3185177 19.89179203 -26 18 Z M-69 19 C-69.33 19.66 -69.66 20.32 -70 21 C-69.01 20.67 -68.02 20.34 -67 20 C-67.66 19.67 -68.32 19.34 -69 19 Z " fill="#1D1D1C" transform="translate(108,62)"/>
</svg>
